<?xml version="1.0" encoding="utf-8"?>
<!-- Generator: Adobe Illustrator 16.0.0, SVG Export Plug-In . SVG Version: 6.00 Build 0)  -->
<!DOCTYPE svg PUBLIC "-//W3C//DTD SVG 1.1//EN" "http://www.w3.org/Graphics/SVG/1.1/DTD/svg11.dtd">
<svg version="1.1" id="Layer_1" xmlns="http://www.w3.org/2000/svg" xmlns:xlink="http://www.w3.org/1999/xlink" x="0px" y="0px"
	 width="2551.18px" height="992.13px" viewBox="0 0 2551.18 992.13" enable-background="new 0 0 2551.18 992.13"
	 xml:space="preserve">
<g>
	<path fill="#FFFFFF" d="M122.214,246.658h207.539c109.16,0,180.586,68.73,180.586,171.152
		c0,104.444-73.447,169.805-184.629,169.805h-75.469V734.51H122.214V246.658z M300.105,487.888
		c48.516,0,76.143-26.953,76.143-70.078c0-42.451-27.627-68.73-76.143-68.73h-49.863v138.809H300.105z"/>
</g>
<g>
	<path fill="#FFFFFF" d="M520.092,601.969c0-82.031,52.246-136.719,134.277-136.719c78.613,0,130.859,50.782,130.859,135.743v21.973
		H611.401v3.418c0,27.344,17.578,46.875,46.875,46.875c20.02,0,36.133-8.789,41.992-23.926h84.473
		c-9.277,54.688-56.152,89.355-128.418,89.355C571.85,738.688,520.092,687.418,520.092,601.969z M699.78,571.207
		c-0.488-23.926-19.043-40.527-43.457-40.527c-24.658,0-44.189,16.846-44.922,40.527H699.78z"/>
	<path fill="#FFFFFF" d="M980.542,535.563h-46.387v113.281c0,12.695,6.348,17.578,19.043,18.066
		c6.836,0.488,20.508-0.488,30.762-1.465v68.848c-8.789,1.465-22.949,3.418-43.945,3.418c-64.453,0-98.633-24.414-98.145-79.59
		V535.563h-34.18v-66.895h34.18v-63.477h92.285v63.477h46.387V535.563z"/>
	<path fill="#FFFFFF" d="M1108.862,568.57c-14.063,0-25.391,5.469-25,14.844c-0.391,6.641,4.688,12.5,21.484,15.625l42.188,7.813
		c43.359,7.813,64.063,26.172,64.453,57.422c-0.391,44.922-42.969,73.438-101.172,73.438c-64.063,0-101.172-28.516-105.469-71.484
		h73.438c2.344,13.672,14.453,21.484,32.422,21.484c14.844,0,25.391-5.469,25.781-14.844c-0.391-8.594-7.813-13.281-25-16.406
		l-37.109-6.641c-42.969-7.813-64.453-29.297-64.453-62.109c0-43.75,37.109-68.75,96.875-68.75
		c60.156,0,97.266,26.563,99.219,71.094h-67.969C1136.987,576.773,1124.487,568.57,1108.862,568.57z"/>
</g>
<g>
	<path fill="#FFFFFF" d="M1241.751,345.236h167.591c88.149,0,145.827,54.785,145.827,136.426
		c0,83.252-59.311,135.352-149.092,135.352h-60.942v117.09h-103.384V345.236z M1385.401,537.521
		c39.178,0,61.486-21.484,61.486-55.859c0-33.838-22.309-54.785-61.486-54.785h-40.266v110.645H1385.401z"/>
	<path fill="#FFFFFF" d="M1680.616,576.389l62.821-2.441v-21.484c0-14.648-12.366-22.949-30.669-22.949
		c-19.292,0-31.658,8.301-34.132,24.902h-86.565c3.463-48.34,43.036-88.867,122.182-88.867c74.693,0,122.675,36.133,122.675,87.402
		v181.152h-87.555v-37.109h-1.979c-15.829,28.809-42.54,41.504-78.156,41.504c-51.444,0-87.555-24.902-87.555-77.637
		C1581.684,602.268,1625.709,579.807,1680.616,576.389z M1699.413,679.416c23.249,0,45.014-14.648,44.52-39.551v-14.16
		c-9.399,0.244-34.132,1.221-46.498,2.441c-16.818,1.953-27.701,13.184-27.701,27.344
		C1669.733,671.115,1682.1,679.416,1699.413,679.416z"/>
	<path fill="#FFFFFF" d="M1874.029,602.268c0-81.543,51.939-136.719,138.505-136.719c77.661,0,127.127,43.945,128.116,112.305
		h-87.06c-2.474-27.832-17.808-42.969-39.573-42.969c-26.711,0-44.52,21.973-44.52,66.406c0,44.922,17.809,67.383,44.52,67.383
		c21.766,0,37.1-15.137,39.573-43.457h87.06c-1.483,69.336-49.466,113.77-128.116,113.77
		C1925.969,738.986,1874.029,683.811,1874.029,602.268z"/>
	<path fill="#FFFFFF" d="M2170.827,602.268c0-82.031,52.929-136.719,136.031-136.719c79.641,0,132.568,50.781,132.568,135.742
		v21.973h-176.099v3.418c0,27.344,17.808,46.875,47.487,46.875c20.281,0,36.605-8.789,42.541-23.926h85.576
		c-9.398,54.688-56.886,89.355-130.096,89.355C2223.261,738.986,2170.827,687.717,2170.827,602.268z M2352.861,571.506
		c-0.494-23.926-19.291-40.527-44.024-40.527c-24.98,0-44.767,16.846-45.509,40.527H2352.861z"/>
</g>
<circle cx="1393.9" cy="459.1" r="106.7" fill="#FFFFFF"/>
<circle cx="1343.2" cy="445.8" r="39.5" fill="#1E3A5F"/>
<circle cx="1375.2" cy="421.8" r="35.2" fill="#1E3A5F"/>
<circle cx="1412.6" cy="421.8" r="35.2" fill="#1E3A5F"/>
<circle cx="1444.6" cy="445.8" r="39.5" fill="#1E3A5F"/>
</svg>
